<svg width="59" height="59" viewBox="0 0 59 59" fill="none" xmlns="http://www.w3.org/2000/svg">
    <g clip-path="url(#clip0_8_206)">
        <path
            d="M29.5 59C45.7924 59 59 45.7924 59 29.5C59 13.2076 45.7924 0 29.5 0C13.2076 0 0 13.2076 0 29.5C0 45.7924 13.2076 59 29.5 59Z"
            fill="#F0F0F0" />
        <path
            d="M8.64027 50.3598C-2.88017 38.8393 -2.88017 20.1609 8.64027 8.64038C8.63946 8.64165 25.6522 29.5001 25.6522 29.5001L8.64027 50.3598Z"
            fill="black" />
        <path
            d="M25.6522 29.5L3.91253 14.8091C3.23852 15.9807 2.64414 17.2035 2.13342 18.4693L13.1393 29.5001L2.13377 40.5315C2.64403 41.7963 3.23783 43.0183 3.91137 44.1891L25.6522 29.5Z"
            fill="#FFDA44" />
        <path
            d="M58.7503 25.6521H25.6514L8.64002 8.64062C6.80687 10.4738 5.21422 12.547 3.91253 14.8091L18.5748 29.4999L3.91138 44.1888C5.21306 46.4516 6.80641 48.5254 8.64002 50.359L25.6514 33.3477H58.7503C58.9142 32.0882 59 30.804 59 29.4999C59 28.1958 58.9142 26.9116 58.7503 25.6521Z"
            fill="#6DA544" />
        <path
            d="M11.5394 52.9016C16.5139 56.7253 22.7408 59.0001 29.5 59.0001C43.1298 59.0001 54.5987 49.7559 57.9838 37.1958H27.2452L11.5394 52.9016Z"
            fill="#0052B4" />
        <path
            d="M57.9838 21.8043C54.5987 9.24422 43.1298 0 29.5 0C22.7408 0 16.5139 2.27484 11.5394 6.09855L27.2451 21.8043H57.9838Z"
            fill="#D80027" />
    </g>
    <defs>
        <clipPath id="clip0_8_206">
            <rect width="59" height="59" fill="white" />
        </clipPath>
    </defs>
</svg>