<svg width="31" height="31" viewBox="0 0 31 31" fill="none" xmlns="http://www.w3.org/2000/svg">
    <path fill-rule="evenodd" clip-rule="evenodd"
        d="M15.5014 0.502808C11.5181 0.502808 11.0182 0.520338 9.45376 0.591997C7.89235 0.663963 6.82657 0.912769 5.894 1.27783C4.92935 1.65488 4.11106 2.15926 3.29583 2.98011C2.47999 3.80065 1.97888 4.62426 1.60304 5.59488C1.23942 6.53382 0.991921 7.60686 0.921642 9.17781C0.851669 10.7525 0.833336 11.2559 0.833336 15.2651C0.833336 19.2743 0.851058 19.7759 0.921948 21.3506C0.993754 22.9221 1.24095 23.9949 1.60334 24.9335C1.97826 25.9044 2.47938 26.728 3.29492 27.5486C4.10984 28.3697 4.92813 28.8753 5.89217 29.2524C6.82534 29.6175 7.89144 29.8663 9.45254 29.9382C11.017 30.0099 11.5166 30.0274 15.4995 30.0274C19.4831 30.0274 19.9815 30.0099 21.5459 29.9382C23.1073 29.8663 24.1744 29.6175 25.1075 29.2524C26.0719 28.8753 26.8889 28.3697 27.7039 27.5486C28.5197 26.728 29.0208 25.9044 29.3967 24.9338C29.7572 23.9949 30.0047 22.9218 30.0781 21.3509C30.1483 19.7762 30.1667 19.2743 30.1667 15.2651C30.1667 11.2559 30.1483 10.7528 30.0781 9.17812C30.0047 7.60655 29.7572 6.53382 29.3967 5.59519C29.0208 4.62426 28.5197 3.80065 27.7039 2.98011C26.888 2.15895 26.0722 1.65457 25.1066 1.27783C24.1716 0.912769 23.1052 0.663963 21.5438 0.591997C19.9793 0.520338 19.4813 0.502808 15.4968 0.502808H15.5014ZM14.1856 3.16306C14.5761 3.16244 15.0118 3.16306 15.5013 3.16306C19.4174 3.16306 19.8815 3.1772 21.4279 3.24794C22.8579 3.31376 23.6341 3.55426 24.1511 3.75632C24.8355 4.02388 25.3235 4.34373 25.8365 4.86041C26.3499 5.3771 26.6677 5.86917 26.9341 6.55808C27.1349 7.07784 27.3741 7.85901 27.4392 9.29833C27.5095 10.8545 27.5247 11.322 27.5247 15.2617C27.5247 19.2014 27.5095 19.6689 27.4392 21.225C27.3738 22.6644 27.1349 23.4455 26.9341 23.9653C26.6683 24.6542 26.3499 25.1447 25.8365 25.6611C25.3232 26.1778 24.8358 26.4977 24.1511 26.7652C23.6347 26.9682 22.8579 27.2081 21.4279 27.2739C19.8818 27.3446 19.4174 27.36 15.5013 27.36C11.585 27.36 11.1208 27.3446 9.5747 27.2739C8.14468 27.2075 7.36856 26.967 6.85125 26.7649C6.1668 26.4973 5.67791 26.1775 5.16457 25.6608C4.65123 25.1441 4.33345 24.6533 4.067 23.9641C3.86625 23.4443 3.627 22.6631 3.56191 21.2238C3.49163 19.6676 3.47758 19.2001 3.47758 15.258C3.47758 11.3158 3.49163 10.8508 3.56191 9.29464C3.6273 7.85532 3.86625 7.07415 4.067 6.55377C4.33284 5.86487 4.65123 5.37279 5.16457 4.85611C5.67791 4.33943 6.1668 4.01958 6.85125 3.7514C7.36826 3.54841 8.14468 3.30853 9.5747 3.2424C10.9277 3.18089 11.452 3.16244 14.1856 3.15937V3.16306ZM23.3303 5.61422C22.3587 5.61422 21.5703 6.40677 21.5703 7.38508C21.5703 8.36308 22.3587 9.15656 23.3303 9.15656C24.302 9.15656 25.0904 8.36308 25.0904 7.38508C25.0904 6.40708 24.302 5.61422 23.3303 5.61422ZM15.5014 7.68401C11.3418 7.68401 7.96938 11.0784 7.96938 15.2651C7.96938 19.4517 11.3418 22.8446 15.5014 22.8446C19.661 22.8446 23.0322 19.4517 23.0322 15.2651C23.0322 11.0784 19.661 7.68401 15.5014 7.68401ZM15.5013 10.3443C18.2013 10.3443 20.3903 12.5473 20.3903 15.2651C20.3903 17.9826 18.2013 20.1858 15.5013 20.1858C12.8011 20.1858 10.6124 17.9826 10.6124 15.2651C10.6124 12.5473 12.8011 10.3443 15.5013 10.3443Z"
        fill="white" />
</svg>