<svg width="28" height="23" viewBox="0 0 28 23" fill="none" xmlns="http://www.w3.org/2000/svg">
    <path fill-rule="evenodd" clip-rule="evenodd"
        d="M13.6764 6.0838L13.7341 7.04156L12.7723 6.92429C9.27141 6.47473 6.21293 4.95013 3.61612 2.3896L2.34656 1.1191L2.01956 2.05732C1.32707 4.14874 1.76949 6.35745 3.21217 7.84295C3.98159 8.66389 3.80847 8.78116 2.48121 8.29251C2.01955 8.13614 1.61561 8.01886 1.57713 8.0775C1.44248 8.21433 1.90414 9.99302 2.26962 10.6967C2.76975 11.674 3.78924 12.6317 4.90491 13.1986L5.84746 13.6481L4.73179 13.6677C3.65459 13.6677 3.61612 13.6872 3.73153 14.0977C4.11624 15.3682 5.63586 16.7169 7.3286 17.3032L8.52122 17.7137L7.48249 18.3392C5.94363 19.2383 4.13548 19.7465 2.32733 19.7856C1.46172 19.8051 0.75 19.8833 0.75 19.942C0.75 20.1374 3.09675 21.232 4.46249 21.662C8.55969 22.9325 13.4263 22.3852 17.0811 20.2156C19.6779 18.6715 22.2747 15.6027 23.4866 12.6317C24.1406 11.0485 24.7946 8.15569 24.7946 6.76792C24.7946 5.8688 24.8523 5.75152 25.9295 4.67649C26.5643 4.05101 27.1606 3.3669 27.276 3.17144C27.4684 2.80007 27.4491 2.80007 26.4681 3.13235C24.8331 3.71873 24.6022 3.64055 25.4101 2.76097C26.0065 2.1355 26.7182 1.00183 26.7182 0.669545C26.7182 0.610907 26.4296 0.708638 26.1026 0.884552C25.7564 1.08001 24.987 1.3732 24.4099 1.54912L23.3712 1.8814L22.4286 1.23638C21.9093 0.884552 21.1783 0.493631 20.7936 0.376355C19.8126 0.10271 18.3122 0.141802 17.4273 0.454539C15.0229 1.33411 13.5033 3.60145 13.6764 6.0838Z"
        fill="white" />
</svg>