<svg width="31" height="22" viewBox="0 0 31 22" fill="none" xmlns="http://www.w3.org/2000/svg">
    <path fill-rule="evenodd" clip-rule="evenodd"
        d="M26.9602 0.749565C28.2223 1.09816 29.2163 2.12531 29.5537 3.42969C30.1667 5.79374 30.1667 10.7263 30.1667 10.7263C30.1667 10.7263 30.1667 15.6587 29.5537 18.023C29.2163 19.3273 28.2223 20.3545 26.9602 20.7033C24.6728 21.3366 15.5 21.3366 15.5 21.3366C15.5 21.3366 6.32718 21.3366 4.03968 20.7033C2.77751 20.3545 1.78351 19.3273 1.44618 18.023C0.833344 15.6587 0.833344 10.7263 0.833344 10.7263C0.833344 10.7263 0.833344 5.79374 1.44618 3.42969C1.78351 2.12531 2.77751 1.09816 4.03968 0.749565C6.32718 0.116028 15.5 0.116028 15.5 0.116028C15.5 0.116028 24.6728 0.116028 26.9602 0.749565ZM12.75 6.57437V15.8007L20.0834 11.1877L12.75 6.57437Z"
        fill="white" />
</svg>