<svg width="59" height="59" viewBox="0 0 59 59" fill="none" xmlns="http://www.w3.org/2000/svg">
    <g clip-path="url(#clip0_8_203)">
        <path
            d="M29.5 59C45.7924 59 59 45.7924 59 29.5C59 13.2076 45.7924 0 29.5 0C13.2076 0 0 13.2076 0 29.5C0 45.7924 13.2076 59 29.5 59Z"
            fill="#F0F0F0" />
        <path d="M28.2174 29.5001H59C59 26.8375 58.645 24.2581 57.9837 21.8044H28.2174V29.5001Z"
            fill="#D80027" />
        <path
            d="M28.2174 14.1088H54.6701C52.8643 11.162 50.5554 8.55737 47.8633 6.41309H28.2174V14.1088Z"
            fill="#D80027" />
        <path
            d="M29.5 58.9999C36.4428 58.9999 42.8241 56.6003 47.8633 52.5869H11.1367C16.1759 56.6003 22.5573 58.9999 29.5 58.9999Z"
            fill="#D80027" />
        <path
            d="M4.3298 44.8913H54.6702C56.1199 42.5256 57.2443 39.9397 57.9837 37.1956H1.01624C1.75569 39.9397 2.88004 42.5256 4.3298 44.8913Z"
            fill="#D80027" />
        <path
            d="M13.665 4.60684H16.3533L13.8527 6.42351L14.8078 9.36302L12.3074 7.54635L9.80691 9.36302L10.632 6.8236C8.43032 8.65756 6.5006 10.8062 4.91037 13.2003H5.77174L4.18001 14.3567C3.93203 14.7704 3.69418 15.1907 3.46625 15.6171L4.22634 17.9565L2.80826 16.9262C2.45576 17.673 2.13333 18.4367 1.84352 19.2163L2.68093 21.7938H5.77174L3.27116 23.6105L4.22634 26.55L1.72587 24.7333L0.228049 25.8216C0.0781289 27.0267 0 28.2542 0 29.5H29.5C29.5 13.2077 29.5 11.287 29.5 0C23.6724 0 18.2399 1.69049 13.665 4.60684ZM14.8078 26.55L12.3074 24.7333L9.80691 26.55L10.7621 23.6105L8.2615 21.7938H11.3523L12.3074 18.8543L13.2624 21.7938H16.3533L13.8527 23.6105L14.8078 26.55ZM13.8527 15.017L14.8078 17.9565L12.3074 16.1398L9.80691 17.9565L10.7621 15.017L8.2615 13.2003H11.3523L12.3074 10.2608L13.2624 13.2003H16.3533L13.8527 15.017ZM25.3894 26.55L22.8889 24.7333L20.3884 26.55L21.3436 23.6105L18.843 21.7938H21.9338L22.8889 18.8543L23.844 21.7938H26.9348L24.4342 23.6105L25.3894 26.55ZM24.4342 15.017L25.3894 17.9565L22.8889 16.1398L20.3884 17.9565L21.3436 15.017L18.843 13.2003H21.9338L22.8889 10.2608L23.844 13.2003H26.9348L24.4342 15.017ZM24.4342 6.42351L25.3894 9.36302L22.8889 7.54635L20.3884 9.36302L21.3436 6.42351L18.843 4.60684H21.9338L22.8889 1.66733L23.844 4.60684H26.9348L24.4342 6.42351Z"
            fill="#0052B4" />
    </g>
    <defs>
        <clipPath id="clip0_8_203">
            <rect width="59" height="59" fill="white" />
        </clipPath>
    </defs>
</svg>