<svg width="59" height="59" viewBox="0 0 59 59" fill="none" xmlns="http://www.w3.org/2000/svg">
<g clip-path="url(#clip0_8_202)">
<path d="M29.5 59C45.7924 59 59 45.7924 59 29.5C59 13.2076 45.7924 0 29.5 0C13.2076 0 0 13.2076 0 29.5C0 45.7924 13.2076 59 29.5 59Z" fill="#F0F0F0"/>
<path d="M59 29.5001C59 17.8045 52.1937 7.69887 42.326 2.92725V56.0728C52.1937 51.3013 59 41.1957 59 29.5001Z" fill="#D80027"/>
<path d="M0 29.5001C0 41.1957 6.80632 51.3013 16.674 56.0729V2.92725C6.80632 7.69887 0 17.8045 0 29.5001Z" fill="#D80027"/>
<path d="M34.6305 33.3478L39.7608 30.7825L37.1957 29.5V26.9348L32.0652 29.5L34.6305 24.3695H32.0652L29.5 20.5217L26.9348 24.3695H24.3695L26.9348 29.5L21.8043 26.9348V29.5L19.2392 30.7825L24.3695 33.3478L23.087 35.913H28.2175V39.7608H30.7826V35.913H35.913L34.6305 33.3478Z" fill="#D80027"/>
</g>
<defs>
<clipPath id="clip0_8_202">
<rect width="59" height="59" fill="white"/>
</clipPath>
</defs>
</svg>
