<svg width="59" height="59" viewBox="0 0 59 59" fill="none" xmlns="http://www.w3.org/2000/svg">
    <g clip-path="url(#clip0_8_204)">
        <path
            d="M29.5 59C45.7924 59 59 45.7924 59 29.5C59 13.2076 45.7924 0 29.5 0C13.2076 0 0 13.2076 0 29.5C0 45.7924 13.2076 59 29.5 59Z"
            fill="#F0F0F0" />
        <path
            d="M6.09819 11.5398C3.78094 14.5547 2.03364 18.0296 1.01624 21.8045H16.3629L6.09819 11.5398Z"
            fill="#0052B4" />
        <path
            d="M57.9837 21.8047C56.9663 18.0298 55.2189 14.5549 52.9018 11.54L42.6373 21.8047H57.9837Z"
            fill="#0052B4" />
        <path
            d="M1.01624 37.1958C2.03375 40.9706 3.78105 44.4455 6.09819 47.4603L16.3626 37.1958H1.01624Z"
            fill="#0052B4" />
        <path
            d="M47.4602 6.09842C44.4453 3.78118 40.9705 2.03388 37.1956 1.01636V16.3629L47.4602 6.09842Z"
            fill="#0052B4" />
        <path
            d="M11.5398 52.9018C14.5547 55.2191 18.0296 56.9664 21.8044 57.9839V42.6375L11.5398 52.9018Z"
            fill="#0052B4" />
        <path
            d="M21.8043 1.01636C18.0294 2.03388 14.5546 3.78118 11.5398 6.09831L21.8043 16.3628V1.01636Z"
            fill="#0052B4" />
        <path
            d="M37.1957 57.9839C40.9705 56.9664 44.4454 55.2191 47.4602 52.902L37.1957 42.6375V57.9839Z"
            fill="#0052B4" />
        <path
            d="M42.6373 37.1958L52.9018 47.4604C55.2189 44.4457 56.9663 40.9706 57.9837 37.1958H42.6373Z"
            fill="#0052B4" />
        <path
            d="M58.7503 25.6522H33.348H33.3479V0.249713C32.0883 0.0857344 30.8041 0 29.5 0C28.1957 0 26.9117 0.0857344 25.6522 0.249713V25.652V25.6521H0.249713C0.0857344 26.9117 0 28.1959 0 29.5C0 30.8043 0.0857344 32.0883 0.249713 33.3478H25.652H25.6521V58.7503C26.9117 58.9143 28.1957 59 29.5 59C30.8041 59 32.0883 58.9144 33.3478 58.7503V33.348V33.3479H58.7503C58.9143 32.0883 59 30.8043 59 29.5C59 28.1959 58.9143 26.9117 58.7503 25.6522Z"
            fill="#D80027" />
        <path
            d="M37.1957 37.1959L50.3596 50.3598C50.965 49.7546 51.5426 49.1219 52.0936 48.466L40.8235 37.1958H37.1957V37.1959Z"
            fill="#D80027" />
        <path
            d="M21.8043 37.1958H21.8041L8.64026 50.3596C9.24547 50.965 9.87822 51.5426 10.5341 52.0936L21.8043 40.8233V37.1958Z"
            fill="#D80027" />
        <path
            d="M21.8043 21.8046V21.8044L8.64042 8.64038C8.03498 9.24559 7.45742 9.87834 6.90637 10.5343L18.1766 21.8045H21.8043V21.8046Z"
            fill="#D80027" />
        <path
            d="M37.1957 21.8046L50.3597 8.64043C49.7545 8.03498 49.1217 7.45743 48.4658 6.90649L37.1957 18.1768V21.8046Z"
            fill="#D80027" />
    </g>
    <defs>
        <clipPath id="clip0_8_204">
            <rect width="59" height="59" fill="white" />
        </clipPath>
    </defs>
</svg>