<svg width="59" height="59" viewBox="0 0 59 59" fill="none" xmlns="http://www.w3.org/2000/svg">
    <g clip-path="url(#clip0_8_205)">
        <path
            d="M0 29.5001C0 33.1086 0.649115 36.5651 1.83488 39.7609L29.5 42.3262L57.1651 39.7609C58.3509 36.5651 59 33.1086 59 29.5001C59 25.8917 58.3509 22.4351 57.1651 19.2393L29.5 16.6741L1.83488 19.2393C0.649115 22.4351 0 25.8917 0 29.5001H0Z"
            fill="#FFDA44" />
        <path
            d="M57.1651 19.2392C52.997 8.00568 42.184 0 29.5 0C16.8161 0 6.00304 8.00568 1.8349 19.2392H57.1651Z"
            fill="#D80027" />
        <path
            d="M1.8349 39.7607C6.00304 50.9943 16.8161 58.9999 29.5 58.9999C42.184 58.9999 52.997 50.9943 57.1651 39.7607H1.8349Z"
            fill="#D80027" />
    </g>
    <defs>
        <clipPath id="clip0_8_205">
            <rect width="59" height="59" fill="white" />
        </clipPath>
    </defs>
</svg>